<?xml version="1.0" encoding="utf-8"?>
<!-- Generator: Adobe Illustrator 16.0.0, SVG Export Plug-In . SVG Version: 6.00 Build 0)  -->
<!DOCTYPE svg PUBLIC "-//W3C//DTD SVG 1.1//EN" "http://www.w3.org/Graphics/SVG/1.1/DTD/svg11.dtd">
<svg version="1.1" id="Layer_1" xmlns="http://www.w3.org/2000/svg" xmlns:xlink="http://www.w3.org/1999/xlink" x="0px" y="0px"
	 width="4.015px" height="3.88px" viewBox="0 0 4.015 3.88" enable-background="new 0 0 4.015 3.88" xml:space="preserve">
<g>
	<path fill="#FFFFFF" d="M2.686,0.533L2.507,0.711c0.312,0.317,0.504,0.75,0.504,1.229c0,0.479-0.192,0.913-0.504,1.229l0.179,0.178
		C3.042,2.985,3.262,2.489,3.262,1.94C3.262,1.392,3.042,0.895,2.686,0.533z"/>
	<path fill="#FFFFFF" d="M3.218,0L3.04,0.179C3.487,0.632,3.764,1.254,3.764,1.94c0,0.686-0.277,1.308-0.725,1.761L3.218,3.88
		c0.493-0.498,0.797-1.184,0.797-1.94S3.711,0.499,3.218,0z"/>
	<path fill="#FFFFFF" d="M2.007,0.435L1.255,1.188H0v1.505h1.255l0.752,0.754V0.435z"/>
</g>
</svg>
